<?xml version="1.0" encoding="iso-8859-1"?>
<!-- Generator: Adobe Illustrator 19.0.0, SVG Export Plug-In . SVG Version: 6.00 Build 0)  -->
<svg version="1.1" id="Capa_1" xmlns="http://www.w3.org/2000/svg" xmlns:xlink="http://www.w3.org/1999/xlink" x="0px" y="0px"
	 viewBox="0 0 512.002 512.002" style="enable-background:new 0 0 512.002 512.002;" xml:space="preserve">
<g>
	<g>
		<path fill="white" d="M324.023,187.981c-64.335-64.335-169.013-64.335-233.345-0.001L48.25,230.406c-64.334,64.334-64.334,169.012,0,233.346
			c64.334,64.332,169.012,64.332,233.346,0l42.426-42.427C388.357,356.993,388.357,252.313,324.023,187.981z M111.89,457.537
			c-8.287,0-14.998-6.713-14.998-15V415.11h-27.43c-8.286,0-14.998-6.713-14.998-14.998s6.713-15.198,14.998-15.198h42.427
			c8.286,0,14.998,6.913,14.998,15.198v42.425h0.001C126.888,450.824,120.176,457.537,111.89,457.537z M126.999,357.686
			c0,8.286-6.824,14.998-15.11,14.998c-8.287,0-14.998-6.713-14.998-14.998v-27.629H69.463c-8.286,0-14.998-6.511-14.998-14.798
			c0-8.286,6.713-15.298,14.998-15.298h42.427c8.286,0,15.11,7.013,15.11,15.298V357.686z M196.742,457.537
			c-8.287,0-14.84-6.713-14.84-15V415.11h-27.588c-8.286,0-14.998-6.713-14.998-14.998s6.713-15.11,14.998-15.11h42.427
			c8.286,0,15.257,6.824,15.257,15.11v42.425h0.001C211.999,450.824,205.028,457.537,196.742,457.537z M211.999,357.686
			c0,8.286-6.971,14.998-15.257,14.998c-8.287,0-14.998-6.713-14.998-14.998v-27.629h-27.429c-8.286,0-14.998-6.511-14.998-14.798
			c0-8.286,6.713-15.298,14.998-15.298h42.427c8.286,0,15.257,7.013,15.257,15.298V357.686z M211.999,272.833
			c0,8.286-6.971,14.998-15.257,14.998c-8.287,0-14.743-6.713-14.743-14.998v-26.831h-27.684c-8.286,0-14.998-7.309-14.998-15.596
			c0-8.286,6.713-14.404,14.998-14.404h42.427c8.286,0,15.257,6.118,15.257,14.404V272.833z M297,357.686
			c0,8.286-7.118,14.998-15.404,14.998c-8.287,0-14.596-6.713-14.596-14.998v-27.684h-27.831c-8.286,0-14.998-6.456-14.998-14.743
			c0-8.286,6.713-15.257,14.998-15.257h42.427c8.286,0,15.404,6.971,15.404,15.257V357.686z M297,272.833
			c0,8.286-7.118,14.998-15.404,14.998c-8.287,0-15.596-6.713-15.596-14.998v-26.831h-26.831c-8.286,0-14.998-7.309-14.998-15.596
			c0-8.286,6.713-14.404,14.998-14.404h42.427c8.286,0,15.404,6.118,15.404,14.404V272.833z"/>
	</g>
</g>
<g>
	<g>
		<path d="M503.704,128.866l-24.849-12.44c-4.876-2.435-10.012-4.235-15.081-6.207c24.199-31.899,26.891-71.31,26.992-73.156
			c0.478-8.557-7.271-16.304-15.826-15.828c-1.848,0.101-41.257,2.792-73.16,26.997c-1.974-5.067-3.777-10.204-6.215-15.075
			L383.135,8.298c-2.527-5.138-7.716-8.297-13.414-8.297c-5.676,0-10.875,3.21-13.412,8.297l-47.363,80.853
			c-2.029-2.424-3.873-4.971-6.138-7.238L281.596,60.7c-3.917-3.915-9.664-5.354-14.958-3.75
			c-5.292,1.606-9.271,5.999-10.358,11.415l-9.111,45.566c35.956,7.449,70.221,24.99,98.066,52.835
			c27.847,27.847,45.388,62.111,52.835,98.066l45.566-9.111c5.418-1.088,9.811-5.065,11.415-10.356
			c1.606-5.294,0.167-11.043-3.748-14.958l-21.215-21.213c-2.254-2.256-4.841-4.087-7.278-6.118l80.895-47.383
			c5.085-2.538,8.297-7.738,8.297-13.414C512.021,136.602,508.831,131.382,503.704,128.866z"/>
	</g>
</g>
<g>
</g>
<g>
</g>
<g>
</g>
<g>
</g>
<g>
</g>
<g>
</g>
<g>
</g>
<g>
</g>
<g>
</g>
<g>
</g>
<g>
</g>
<g>
</g>
<g>
</g>
<g>
</g>
<g>
</g>
</svg>
