<?xml version="1.0" encoding="utf-8"?>
<!-- Svg Vector Icons : http://www.onlinewebfonts.com/icon -->
<!DOCTYPE svg PUBLIC "-//W3C//DTD SVG 1.1//EN" "http://www.w3.org/Graphics/SVG/1.1/DTD/svg11.dtd">
<svg version="1.1" xmlns="http://www.w3.org/2000/svg" xmlns:xlink="http://www.w3.org/1999/xlink" x="0px" y="0px" viewBox="0 0 1000 1000" enable-background="new 0 0 1000 1000" xml:space="preserve">
<metadata> Svg Vector Icons : http://www.onlinewebfonts.com/icon </metadata>
<g><g><path d="M760.1,529.6V88.9H102.4v822.1h302.5c21.7,0,39.5,17.8,39.5,39.5c0,21.7-17.8,39.5-39.5,39.5h-342c-21.7,0-39.5-17.8-39.5-39.5V49.5C23.5,27.8,41.2,10,62.9,10h736.6c21.7,0,39.5,17.8,39.5,39.5v480.1c0,21.7-17.8,39.5-39.5,39.5S760.1,551.3,760.1,529.6z M963.3,625.6c-16.4-14.5-41.4-13.2-55.9,3.3L691,869.6L582.5,765.1c-15.8-15.1-40.8-14.5-55.9,1.3c-15.1,15.8-14.5,40.8,1.3,55.9l138.1,132.9c7.2,7.2,17.1,11.2,27.6,11.2c0.7,0,0.7,0,1.3,0c10.5-0.7,21-5.3,27.6-13.2l243.4-271C981.1,665.1,979.8,640.1,963.3,625.6z M615.4,240.2H260.2c-21.7,0-39.5,17.8-39.5,39.5c0,21.7,17.8,39.5,39.5,39.5h355.2c21.7,0,39.5-17.8,39.5-39.5C654.9,258,637.1,240.2,615.4,240.2z M654.9,496.7c0-21.7-17.8-39.5-39.5-39.5H260.2c-21.7,0-39.5,17.8-39.5,39.5s17.8,39.5,39.5,39.5h355.2C637.1,536.2,654.9,518.4,654.9,496.7z M260.2,667.7c-21.7,0-39.5,17.8-39.5,39.5s17.8,39.5,39.5,39.5h105.2c21.7,0,39.5-17.8,39.5-39.5s-17.8-39.5-39.5-39.5H260.2z"/></g><g></g><g></g><g></g><g></g><g></g><g></g><g></g><g></g><g></g><g></g><g></g><g></g><g></g><g></g><g></g></g>
</svg>