<svg xmlns="http://www.w3.org/2000/svg" width="301.5" height="601.5" viewBox="0 0 301.5 601.5">
 <g id="Vector_Iphone" data-name="Vector/Iphone" transform="translate(0.75 0.75)">
  <path stroke-width="1.5" stroke-miterlimit="10" stroke="#fff" fill="none" d="m43.479,600.6a49.013,49.013 0 0 1 -8.068,-0.748a41.757,41.757 0 0 1 -14.343,-5.988a39.848,39.848 0 0 1 -14.491,-17.665a43.688,43.688 0 0 1 -2.391,-7.485a37.039,37.039 0 0 1 -0.747,-8.084l0,-338.473l-2.089,0a0.643,0.643 0 0 1 -0.6,-0.6l0,-39.82a0.643,0.643 0 0 1 0.6,-0.6l2.089,0l0,-13.172l-2.089,0a0.643,0.643 0 0 1 -0.6,-0.6l0,-39.815a0.643,0.643 0 0 1 0.6,-0.6l2.089,0l0,-22.308l-2.089,0a0.643,0.643 0 0 1 -0.6,-0.6l0,-20.358a0.643,0.643 0 0 1 0.6,-0.6l2.089,0l0,-42.214a49.3,49.3 0 0 1 0.747,-8.084a41.935,41.935 0 0 1 5.976,-14.371a39.8,39.8 0 0 1 17.63,-14.521a43.45,43.45 0 0 1 7.47,-2.4a36.822,36.822 0 0 1 8.067,-0.744l214.991,0a49,49 0 0 1 8.068,0.749a41.757,41.757 0 0 1 14.342,5.988a39.847,39.847 0 0 1 14.492,17.663a43.7,43.7 0 0 1 2.391,7.485a37.04,37.04 0 0 1 0.747,8.084l0,100l1.79,0a0.643,0.643 0 0 1 0.6,0.6l0,64.97a0.643,0.643 0 0 1 -0.6,0.6l-1.79,0l0,353.741a49.308,49.308 0 0 1 -0.747,8.084a41.93,41.93 0 0 1 -5.976,14.371a39.8,39.8 0 0 1 -17.63,14.521a43.437,43.437 0 0 1 -7.47,2.4a36.815,36.815 0 0 1 -8.068,0.748l-214.99,-0.154z" id="Border_02"/>
  <path stroke-width="1.5" stroke-miterlimit="10" stroke="#fff" fill="none" d="m259.35,587.75l-217.894,0c-15.34,0 -27.706,-12.032 -27.706,-26.957l0,-522.086c0,-14.925 12.366,-26.957 27.706,-26.957l29.429,0a4.587,4.587 0 0 1 3.757,3.655a6.593,6.593 0 0 1 0.313,1.98c0.313,1.523 0.626,3.351 1.1,5.178a13.707,13.707 0 0 0 13.457,10.509l122.253,0a13.708,13.708 0 0 0 13.462,-10.509a43.853,43.853 0 0 0 1.1,-5.178a12.327,12.327 0 0 0 0.313,-1.98a4.587,4.587 0 0 1 3.752,-3.655l28.646,0c15.34,0 27.706,12.032 27.706,26.957l0,522.086c0.313,14.925 -12.053,26.957 -27.394,26.957z" id="Border_01"/>
  <metadata transform="matrix(0.032563151646423316,0,0,0.032563151646423316,0,0) ">Svg Vector Icons : http://www.onlinewebfonts.com/icon</metadata>
  <g stroke="null" id="svg_24">
   <g stroke="null" transform="matrix(0.11362637504072211,0,0,0.1340213383427567,-378.6732164999065,-926.950968863302) " id="svg_6">
    <g stroke="null" id="svg_7">
     <path fill="#f39933" stroke="null" id="svg_8" d="m4919.46799,9190.08953l0,-440.7l-657.7,0l0,822.1l302.5,0c21.7,0 39.5,17.8 39.5,39.5c0,21.7 -17.8,39.5 -39.5,39.5l-342,0c-21.7,0 -39.5,-17.8 -39.5,-39.5l0,-901c0.1,-21.7 17.8,-39.5 39.5,-39.5l736.6,0c21.7,0 39.5,17.8 39.5,39.5l0,480.1c0,21.7 -17.8,39.5 -39.5,39.5s-39.4,-17.8 -39.4,-39.5zm203.2,96c-16.4,-14.5 -41.4,-13.2 -55.9,3.3l-216.4,240.7l-108.5,-104.5c-15.8,-15.1 -40.8,-14.5 -55.9,1.3c-15.1,15.8 -14.5,40.8 1.3,55.9l138.1,132.9c7.2,7.2 17.1,11.2 27.6,11.2c0.7,0 0.7,0 1.3,0c10.5,-0.7 21,-5.3 27.6,-13.2l243.4,-271c15.2,-17.1 13.9,-42.1 -2.6,-56.6zm-347.9,-385.4l-355.2,0c-21.7,0 -39.5,17.8 -39.5,39.5c0,21.7 17.8,39.5 39.5,39.5l355.2,0c21.7,0 39.5,-17.8 39.5,-39.5c0,-21.7 -17.8,-39.5 -39.5,-39.5zm39.5,256.5c0,-21.7 -17.8,-39.5 -39.5,-39.5l-355.2,0c-21.7,0 -39.5,17.8 -39.5,39.5s17.8,39.5 39.5,39.5l355.2,0c21.7,0 39.5,-17.8 39.5,-39.5zm-394.7,171c-21.7,0 -39.5,17.8 -39.5,39.5s17.8,39.5 39.5,39.5l105.2,0c21.7,0 39.5,-17.8 39.5,-39.5s-17.8,-39.5 -39.5,-39.5l-105.2,0z"/>
    </g>
   </g>
  </g>
 </g>
</svg>
