<svg xmlns="http://www.w3.org/2000/svg" width="301.5" height="601.5" viewBox="0 0 301.5 601.5">
  <g id="Vector_Iphone" data-name="Vector/Iphone" transform="translate(0.75 0.75)">
    <path id="Border_02" data-name="Border 02" d="M42.729,599.85a49.013,49.013,0,0,1-8.068-.748,41.757,41.757,0,0,1-14.343-5.988A39.848,39.848,0,0,1,5.827,575.449a43.688,43.688,0,0,1-2.391-7.485,37.039,37.039,0,0,1-.747-8.084V221.407H.6a.643.643,0,0,1-.6-.6v-39.82a.643.643,0,0,1,.6-.6H2.689V167.215H.6a.643.643,0,0,1-.6-.6V126.8a.643.643,0,0,1,.6-.6H2.689V103.892H.6a.643.643,0,0,1-.6-.6V82.934a.643.643,0,0,1,.6-.6H2.689V40.12a49.3,49.3,0,0,1,.747-8.084A41.935,41.935,0,0,1,9.412,17.665,39.8,39.8,0,0,1,27.042,3.144a43.45,43.45,0,0,1,7.47-2.4A36.822,36.822,0,0,1,42.579,0H257.57a49,49,0,0,1,8.068.749A41.757,41.757,0,0,1,279.98,6.737,39.847,39.847,0,0,1,294.472,24.4a43.7,43.7,0,0,1,2.391,7.485,37.04,37.04,0,0,1,.747,8.084v100H299.4a.643.643,0,0,1,.6.6v64.97a.643.643,0,0,1-.6.6H297.61V559.88a49.308,49.308,0,0,1-.747,8.084,41.93,41.93,0,0,1-5.976,14.371,39.8,39.8,0,0,1-17.63,14.521,43.437,43.437,0,0,1-7.47,2.4,36.815,36.815,0,0,1-8.068.748Z" fill="none" stroke="#fff" stroke-miterlimit="10" stroke-width="1.5"/>
    <path id="Border_01" data-name="Border 01" d="M245.6,576H27.706C12.366,576,0,563.968,0,549.043V26.957C0,12.032,12.366,0,27.706,0H57.135a4.587,4.587,0,0,1,3.757,3.655,6.593,6.593,0,0,1,.313,1.98c.313,1.523.626,3.351,1.1,5.178A13.707,13.707,0,0,0,75.762,21.322H198.015a13.708,13.708,0,0,0,13.462-10.509,43.853,43.853,0,0,0,1.1-5.178,12.327,12.327,0,0,0,.313-1.98A4.587,4.587,0,0,1,216.642,0h28.646c15.34,0,27.706,12.032,27.706,26.957V549.043C273.307,563.968,260.941,576,245.6,576Z" transform="translate(13 11)" fill="none" stroke="#fff" stroke-miterlimit="10" stroke-width="1.5"/>
    <path fill="#fff" stroke="null" id="svg_8" d="m4919.46799,9190.08953l0,-440.7l-657.7,0l0,822.1l302.5,0c21.7,0 39.5,17.8 39.5,39.5c0,21.7 -17.8,39.5 -39.5,39.5l-342,0c-21.7,0 -39.5,-17.8 -39.5,-39.5l0,-901c0.1,-21.7 17.8,-39.5 39.5,-39.5l736.6,0c21.7,0 39.5,17.8 39.5,39.5l0,480.1c0,21.7 -17.8,39.5 -39.5,39.5s-39.4,-17.8 -39.4,-39.5zm203.2,96c-16.4,-14.5 -41.4,-13.2 -55.9,3.3l-216.4,240.7l-108.5,-104.5c-15.8,-15.1 -40.8,-14.5 -55.9,1.3c-15.1,15.8 -14.5,40.8 1.3,55.9l138.1,132.9c7.2,7.2 17.1,11.2 27.6,11.2c0.7,0 0.7,0 1.3,0c10.5,-0.7 21,-5.3 27.6,-13.2l243.4,-271c15.2,-17.1 13.9,-42.1 -2.6,-56.6zm-347.9,-385.4l-355.2,0c-21.7,0 -39.5,17.8 -39.5,39.5c0,21.7 17.8,39.5 39.5,39.5l355.2,0c21.7,0 39.5,-17.8 39.5,-39.5c0,-21.7 -17.8,-39.5 -39.5,-39.5zm39.5,256.5c0,-21.7 -17.8,-39.5 -39.5,-39.5l-355.2,0c-21.7,0 -39.5,17.8 -39.5,39.5s17.8,39.5 39.5,39.5l355.2,0c21.7,0 39.5,-17.8 39.5,-39.5zm-394.7,171c-21.7,0 -39.5,17.8 -39.5,39.5s17.8,39.5 39.5,39.5l105.2,0c21.7,0 39.5,-17.8 39.5,-39.5s-17.8,-39.5 -39.5,-39.5l-105.2,0z"/>
  </g>
</svg>
